<?xml version="1.0" encoding="UTF-8" standalone="no"?>
<!-- Created with Inkscape (http://www.inkscape.org/) -->

<svg
   width="43.737339"
   height="41.618"
   viewBox="0 0 11.572171 11.011429"
   version="1.1"
   id="svg5"
   inkscape:version="1.1.2 (0a00cf5339, 2022-02-04)"
   sodipodi:docname="presentation.svg"
   xmlns:inkscape="http://www.inkscape.org/namespaces/inkscape"
   xmlns:sodipodi="http://sodipodi.sourceforge.net/DTD/sodipodi-0.dtd"
   xmlns="http://www.w3.org/2000/svg"
   xmlns:svg="http://www.w3.org/2000/svg">
  <sodipodi:namedview
     id="namedview7"
     pagecolor="#ffffff"
     bordercolor="#666666"
     borderopacity="1.0"
     inkscape:pageshadow="2"
     inkscape:pageopacity="0.0"
     inkscape:pagecheckerboard="0"
     inkscape:document-units="mm"
     showgrid="false"
     units="px"
     showguides="true"
     inkscape:guide-bbox="true"
     inkscape:snap-bbox="true"
     inkscape:bbox-paths="true"
     inkscape:bbox-nodes="true"
     inkscape:snap-bbox-edge-midpoints="true"
     inkscape:snap-bbox-midpoints="true"
     inkscape:snap-midpoints="true"
     inkscape:zoom="4.3994184"
     inkscape:cx="-140.47311"
     inkscape:cy="41.02815"
     inkscape:window-width="2479"
     inkscape:window-height="1376"
     inkscape:window-x="0"
     inkscape:window-y="0"
     inkscape:window-maximized="1"
     inkscape:current-layer="layer1"
     fit-margin-top="0"
     fit-margin-left="0"
     fit-margin-right="0"
     fit-margin-bottom="0">
    <sodipodi:guide
       position="3.3774205,9.245366"
       orientation="1,0"
       id="guide13005" />
  </sodipodi:namedview>
  <defs
     id="defs2">
    <clipPath
       clipPathUnits="userSpaceOnUse"
       id="clipPath8538">
      <path
         id="path8540"
         style="fill:#f2e5dd;fill-opacity:1;stroke:none;stroke-width:0.2;stroke-linecap:round;stroke-linejoin:round;stroke-opacity:1;paint-order:markers fill stroke"
         d="m 10.518606,3.5088452 c 0,0.5519184 -0.322005,0.9993368 -0.7192191,0.9993368 -0.3972139,0 -0.7192195,-0.4474184 -0.7192195,-0.9993368 0,-0.5519188 0.3220056,-0.8027059 0.7192195,-0.8027059 0.3972141,0 0.7192191,0.2507871 0.7192191,0.8027059 z"
         sodipodi:nodetypes="sssss" />
    </clipPath>
  </defs>
  <g
     inkscape:label="Calque 1"
     inkscape:groupmode="layer"
     id="layer1"
     transform="translate(-0.4643203,-0.70499986)">
    <path
       style="fill:none;stroke:#000000;stroke-width:0.465;stroke-linecap:round;stroke-linejoin:miter;stroke-miterlimit:4;stroke-dasharray:none;stroke-opacity:1"
       d="M 4.8069073,11.386193 V 5.6424723"
       id="path12112" />
    <rect
       style="fill:#dddddd;fill-opacity:1;stroke:none;stroke-width:0.2;stroke-linecap:round;stroke-linejoin:round;stroke-miterlimit:4;stroke-dasharray:none;stroke-opacity:1;paint-order:markers fill stroke"
       id="rect4811"
       width="8.3063946"
       height="6.4045186"
       x="0.4643203"
       y="0.70499986"
       ry="0.26170132" />
    <ellipse
       style="fill:#8ea4b2;fill-opacity:1;stroke:none;stroke-width:0.20539;stroke-linecap:round;stroke-linejoin:round;stroke-miterlimit:4;stroke-dasharray:none;stroke-opacity:1;paint-order:markers fill stroke"
       id="path5599"
       cx="9.7928247"
       cy="4.9485097"
       rx="1.3634984"
       ry="0.77592432" />
    <path
       id="path5901"
       style="fill:#f5e4da;fill-opacity:1;stroke:#ffffff;stroke-width:0;stroke-linecap:round;stroke-linejoin:round;stroke-miterlimit:4;stroke-dasharray:none;stroke-opacity:1;paint-order:markers fill stroke"
       d="m 10.518606,3.5088451 c 0,0.5519186 -0.322005,0.999337 -0.7192193,0.999337 -0.397214,0 -0.7192196,-0.4474184 -0.7192196,-0.999337 0,-0.5519186 0.3220056,-0.8027057 0.7192196,-0.8027057 0.3972143,0 0.7192193,0.2507871 0.7192193,0.8027057 z"
       sodipodi:nodetypes="sssss" />
    <g
       id="g3455"
       style="fill:#7d745d;fill-opacity:1"
       transform="matrix(0.70727843,0,0,1,3.1490724,0)">
      <path
         id="rect1976"
         style="fill:#7d745d;fill-opacity:1;stroke-width:0.222046;stroke-linecap:round;stroke-linejoin:round;paint-order:markers fill stroke"
         d="m 6.504669,4.9485099 h 3.747729 c 0.124868,0 0.225394,0.1274304 0.225394,0.2857183 v 1.7076792 c 0,0.1582879 -0.100526,0.2856583 -0.225394,0.2857182 l -3.3345802,0.0016 C 6.7929495,7.2292843 6.7290047,7.0948494 6.6924237,6.9435063 L 6.2792748,5.2342282 C 6.2426937,5.0828851 6.3798006,4.9485099 6.504669,4.9485099 Z"
         sodipodi:nodetypes="sssssssss" />
      <path
         id="rect1976-6"
         style="fill:#7d745d;fill-opacity:1;stroke-width:0.222046;stroke-linecap:round;stroke-linejoin:round;paint-order:markers fill stroke"
         d="M 12.334248,4.9485099 H 8.5865194 c -0.124868,0 -0.225394,0.1274304 -0.225394,0.2857183 v 1.7076792 c 0,0.1582879 0.100526,0.2856583 0.225394,0.2857182 l 3.3345796,0.0016 c 0.124869,5.87e-5 0.188813,-0.1343762 0.225394,-0.2857193 L 12.559642,5.2342282 C 12.596223,5.0828851 12.459116,4.9485099 12.334248,4.9485099 Z"
         sodipodi:nodetypes="sssssssss" />
    </g>
    <g
       id="g1952"
       transform="matrix(0.77029086,0,0,0.94789198,5.7417276,3.3767795)"
       style="fill:#594d30;fill-opacity:1">
      <path
         id="rect969"
         style="fill:#594d30;fill-opacity:1;stroke-width:0.234227;stroke-linecap:round;stroke-linejoin:round;paint-order:markers fill stroke"
         d="m 4.1336843,2.476711 h 1.9764042 c 0.138945,0 0.1846957,0.3094245 0.1865229,0.4676986 l 0.06428,5.5679729 C 6.3627176,8.6706567 6.2490335,8.7981007 6.1100885,8.7981007 H 4.1336843 c -0.138945,0 -0.235281,-0.1284212 -0.2508033,-0.2857182 L 3.325594,2.8650475 C 3.3100717,2.7077506 3.9947393,2.476711 4.1336843,2.476711 Z"
         sodipodi:nodetypes="sssssssss" />
      <path
         id="rect969-3"
         style="fill:#594d30;fill-opacity:1;stroke-width:0.217313;stroke-linecap:round;stroke-linejoin:round;paint-order:markers fill stroke"
         d="M 6.5450502,2.476711 H 4.8437857 c -0.1196021,0 -0.1589837,0.3094245 -0.1605566,0.4676986 l -0.055332,5.5679729 c -0.00157,0.1582742 0.096286,0.2857182 0.2158884,0.2857182 H 6.54505 c 0.1196022,0 0.202527,-0.1284212 0.2158884,-0.2857182 l 0.479706,-5.647335 C 7.2540058,2.7077506 6.6646524,2.476711 6.5450502,2.476711 Z"
         sodipodi:nodetypes="sssssssss" />
    </g>
    <path
       style="fill:#0e0b08;fill-opacity:1;stroke:none;stroke-width:0.264583px;stroke-linecap:butt;stroke-linejoin:miter;stroke-opacity:1"
       d="m 9.2018463,3.0013063 0.274964,0.2805705 0.030939,-0.116863 0.2690251,0.1899957 -0.058556,-0.1417389 0.3682386,0.1300692 0.0679,-0.082601 0.162587,0.1332251 0.02471,0.279823 0.312963,-0.3645839 -0.34004,-0.7768428 -0.9849037,0.00893 -0.383521,0.665628 0.1075603,0.3809879 0.232106,-0.096098 0.054694,-0.210594 0.1561492,-0.1218877"
       id="path7586"
       clip-path="url(#clipPath8538)" />
    <path
       id="path5901-5"
       style="fill:none;fill-opacity:1;stroke:#ffffff;stroke-width:0.2;stroke-linecap:round;stroke-linejoin:round;stroke-opacity:1;paint-order:markers fill stroke"
       d="m 10.518606,3.5088451 c 0,0.5519186 -0.322005,0.999337 -0.7192191,0.999337 -0.3972142,0 -0.7192198,-0.4474184 -0.7192198,-0.999337 0,-0.5519186 0.3220056,-0.8027057 0.7192198,-0.8027057 0.3972141,0 0.7192191,0.2507871 0.7192191,0.8027057 z"
       sodipodi:nodetypes="sssss" />
    <path
       style="fill:none;stroke:#000000;stroke-width:0.264583px;stroke-linecap:round;stroke-linejoin:miter;stroke-opacity:1"
       d="M 4.6746158,10.128235 3.097134,11.486402"
       id="path12147" />
    <path
       style="fill:none;stroke:#000000;stroke-width:0.264583px;stroke-linecap:round;stroke-linejoin:miter;stroke-opacity:1"
       d="m 4.9391988,10.128235 1.5774818,1.358167"
       id="path12276" />
    <path
       style="fill:none;stroke:#000000;stroke-width:0.264583px;stroke-linecap:round;stroke-linejoin:miter;stroke-opacity:1"
       d="M 1.1437107,1.7226676 2.269184,1.730655"
       id="path12350"
       sodipodi:nodetypes="cc" />
    <path
       style="fill:none;stroke:#000000;stroke-width:0.264583px;stroke-linecap:round;stroke-linejoin:miter;stroke-opacity:1"
       d="M 1.1437107,2.4710632 H 3.8417408"
       id="path12352"
       sodipodi:nodetypes="cc" />
    <path
       style="fill:none;stroke:#000000;stroke-width:0.264583px;stroke-linecap:round;stroke-linejoin:miter;stroke-opacity:1"
       d="m 1.1437107,3.2095329 2.6980301,6.768e-4"
       id="path12354"
       sodipodi:nodetypes="cc" />
    <path
       style="fill:#8fb1dd;fill-opacity:1;stroke:none;stroke-width:0.389988;stroke-linecap:round;stroke-linejoin:round;stroke-miterlimit:4;stroke-dasharray:none;stroke-opacity:1;paint-order:markers fill stroke"
       id="path12514"
       sodipodi:type="arc"
       sodipodi:cx="2.5162361"
       sodipodi:cy="5.2597919"
       sodipodi:rx="0.93343866"
       sodipodi:ry="0.93343866"
       sodipodi:start="0"
       sodipodi:end="4.712389"
       sodipodi:arc-type="slice"
       d="M 3.4496747,5.2597919 A 0.93343866,0.93343866 0 0 1 2.8734476,6.1221767 0.93343866,0.93343866 0 0 1 1.8561953,5.9198326 0.93343866,0.93343866 0 0 1 1.6538512,4.9025803 0.93343866,0.93343866 0 0 1 2.5162361,4.3263532 v 0.9334387 z" />
    <path
       style="fill:#696c9b;fill-opacity:1;stroke:#dddddd;stroke-width:0.1;stroke-linecap:round;stroke-linejoin:round;stroke-miterlimit:4;stroke-dasharray:none;stroke-opacity:1;paint-order:markers fill stroke"
       id="path13681"
       sodipodi:type="arc"
       sodipodi:cx="2.5162361"
       sodipodi:cy="-5.2597919"
       sodipodi:rx="0.9334386"
       sodipodi:ry="0.93343866"
       sodipodi:start="0"
       sodipodi:end="1.5707963"
       sodipodi:arc-type="slice"
       d="M 3.4496747,-5.2597919 A 0.9334386,0.93343866 0 0 1 2.5162361,-4.3263532 V -5.2597919 Z"
       transform="scale(1,-1)" />
    <path
       style="fill:none;stroke:#760a0a;stroke-width:0.264583px;stroke-linecap:butt;stroke-linejoin:miter;stroke-opacity:1"
       d="M 4.8069073,5.6424723 5.1655072,4.7247312 5.7950446,4.9625329 6.404907,4.052144 6.7410832,4.2404355 7.1370475,3.0749192 7.6754931,3.2157561 8.1930305,1.9083458"
       id="path14390" />
  </g>
</svg>
